<?xml version="1.0" encoding="utf-8"?>
<!-- Generator: Adobe Illustrator 18.1.1, SVG Export Plug-In . SVG Version: 6.00 Build 0)  -->
<svg version="1.1" id="Layer_1" xmlns="http://www.w3.org/2000/svg" xmlns:xlink="http://www.w3.org/1999/xlink" x="0px" y="0px"
	 viewBox="0 0 137.6 164.2" enable-background="new 0 0 137.6 164.2" xml:space="preserve">
<g>
	<g>
		<path fill="#FFFFFF" d="M103.5,43.2c0-3.5-2.7-6.5-6.3-7.4c-4.3-11.9-13.8-17.1-25.1-18.2V9.4c3.7-0.7,6.3-2.5,6.3-4.5
			C78.4,2.2,74,0,68.5,0c-5.5,0-9.9,2.2-9.9,4.9c0,2.1,2.6,3.8,6.3,4.5v8.1c-13.5,0.8-24.3,7.9-27.5,24.4V26.8h-3.1
			c2.1-1.7,3.5-4.2,3.5-7c0-5-4.3-9.1-9.6-9.1s-9.6,4.1-9.6,9.1c0,2.8,1.3,5.3,3.5,7h-3.5v63.1h18v21.5h26.6v6.5
			c-10.2,2.2-17.8,11.6-17.8,22.8c0,12.9,10,23.4,22.4,23.4s22.4-10.5,22.4-23.4c0-11.2-7.6-20.5-17.7-22.8v-6.6h27.2V51.6
			c0-0.7,0-1.3-0.1-1.9C102,48.3,103.5,45.9,103.5,43.2z M75.4,140.6c0,4.1-3.2,7.5-7.2,7.5c-4,0-7.2-3.4-7.2-7.5
			c0-4.1,3.2-7.5,7.2-7.5C72.2,133.2,75.4,136.5,75.4,140.6z"/>
		<path fill="#FFFFFF" d="M122,35.6c-5.8,0-10.5,4.8-10.5,10.6c0,4.3,2.5,7.9,6.1,9.6l-2.8,10.1h-4.1v2.8l-45,8.7v-2.9h-3.3l3.1-8.1
			l4.1,1.6l4-10.4l-12.4-4.7l-4,10.4l4.3,1.7L58,74.4h-3.4v10.5h11.2V82l45-8.7v3.1h11.2V65.9h-2.7l2.5-9.1c0.1,0,0.2,0,0.3,0
			c5.8,0,10.5-4.8,10.5-10.6S127.8,35.6,122,35.6z M122,54.9c-4.7,0-8.5-4-8.5-8.9s3.8-8.9,8.5-8.9c4.7,0,8.5,4,8.5,8.9
			S126.7,54.9,122,54.9z"/>
	</g>
	<text transform="matrix(1 0 0 1 -1 147.3354)" fill="#FFFFFF" font-family="'GillSans-Light'" font-size="24.3256">VAY</text>
	<text transform="matrix(1 0 0 1 93.5801 146.478)" fill="#FFFFFF" font-family="'GillSans-Light'" font-size="24.3256">KAY</text>
</g>
</svg>
